<svg width="54" height="59" viewBox="0 0 54 59" fill="none" xmlns="http://www.w3.org/2000/svg">
<path d="M26.4186 58.9815C19.2195 58.4983 12.8592 55.6987 7.83708 50.8026C6.11567 49.1244 4.84466 47.5496 3.33153 45.22L2.5833 44.0681L2.54886 48.5899C2.5094 53.7703 2.5562 53.4121 1.87512 53.7467C1.56976 53.8967 1.44876 53.9195 1.13279 53.8868C0.66012 53.8377 0.310982 53.6255 0.135635 53.2804C0.0038915 53.0211 0 52.8463 0 47.188C0 41.3931 0.000763512 41.3611 0.146121 41.0596C0.234131 40.8771 0.403347 40.6827 0.571612 40.5709L0.85098 40.3853L6.64295 40.3668L12.4349 40.3483L12.7446 40.5051C13.4441 40.8592 13.5963 42.0707 13.0086 42.6071C12.675 42.9117 12.7023 42.9097 8.78775 42.9097C5.79546 42.9097 5.02883 42.9276 5.02883 42.9976C5.02883 43.1258 6.16162 44.8482 6.85965 45.7813C10.9131 51.1996 16.9883 54.993 23.353 56.0798C25.1766 56.3912 25.6035 56.4267 27.5208 56.4259C29.4476 56.4252 29.9977 56.3805 31.7918 56.0787C38.5405 54.9437 44.4778 51.2219 48.6068 45.538C49.64 44.1158 50.2862 43.0336 51.1673 41.2499C51.5337 40.5082 51.9088 39.8313 52.0009 39.7456C52.1272 39.6281 52.2512 39.5898 52.5055 39.5898C53.3435 39.5898 54.0043 40.3387 53.9223 41.1955C53.858 41.8682 52.2305 44.8972 50.9759 46.6792C46.2253 53.4272 38.7727 57.9765 31.0341 58.8523C30.0987 58.9582 27.2567 59.0377 26.4186 58.9814L26.4186 58.9815ZM27.0385 32.82C26.7048 32.6645 26.495 32.4454 26.353 32.104C26.2592 31.8788 26.2463 31.0398 26.2463 25.1584C26.2463 18.534 26.2477 18.4661 26.389 18.1731C26.5789 17.7792 26.9005 17.5872 27.439 17.5464C27.9805 17.5054 28.4064 17.7087 28.6391 18.1193L28.7929 18.3907L28.7941 24.3563L28.7952 30.3217L34.599 30.325C40.7363 30.3282 40.7206 30.3274 41.0691 30.6439C41.6536 31.1746 41.5855 32.3057 40.9428 32.7427L40.6885 32.9156L34.0013 32.9322C27.6119 32.948 27.3018 32.9429 27.0385 32.8203L27.0385 32.82ZM0.929984 19.2791C0.593949 19.1018 0.285125 18.7664 0.163529 18.4467C-0.0166379 17.973 0.0674326 17.596 0.6032 16.4747C4.58667 8.13802 12.4434 2.03401 21.3208 0.378923C22.8918 0.0860465 23.9814 -0.0020855 26.0052 3.72609e-05C28.0978 0.0024679 29.3921 0.108363 31.0685 0.415208C36.8831 1.47949 42.0176 4.12402 46.1967 8.20697C47.9213 9.89193 49.129 11.3855 50.6089 13.6636L51.4249 14.9197L51.4593 10.3958C51.4852 7.00149 51.5149 5.83485 51.5784 5.72368C51.8218 5.29709 52.3834 5.036 52.9202 5.09983C53.3612 5.15225 53.7029 5.3693 53.8737 5.70538C54.0074 5.96854 54.0101 6.10648 53.9921 11.8765L53.9738 17.7784L53.7902 18.0569C53.6748 18.2319 53.4895 18.3907 53.2915 18.4841C52.977 18.6325 52.9655 18.6328 47.2725 18.6328H41.5687L41.2613 18.4772C40.8189 18.2532 40.6272 17.8576 40.6589 17.2344C40.6852 16.7195 40.8043 16.4959 41.1943 16.2293L41.4221 16.0737H45.2007C48.3507 16.0737 48.9794 16.058 48.9794 15.9791C48.9794 15.8134 47.3664 13.4454 46.5939 12.4771C45.7709 11.4455 43.914 9.5367 42.9517 8.73312C41.2202 7.28728 39.5555 6.18757 37.6562 5.23493C34.8901 3.84749 32.3814 3.09069 29.0707 2.6449C28.1958 2.52709 24.918 2.52461 23.973 2.64084C18.2156 3.35023 13.4731 5.43395 9.36876 9.05757C6.65835 11.4505 4.56462 14.2385 2.81954 17.7784C2.37399 18.6822 2.07337 19.2109 1.96422 19.2827C1.74945 19.424 1.20121 19.422 0.929981 19.2787L0.929984 19.2791Z" fill="#313630"/>
</svg>
