<svg width="65" height="71" viewBox="0 0 65 71" fill="none" xmlns="http://www.w3.org/2000/svg">
<path fill-rule="evenodd" clip-rule="evenodd" d="M45.1557 17.923L50.8849 9.54719C45.5568 9.93081 39.2173 11.1824 33.1142 12.9494C28.7548 14.2088 23.911 14.017 19.4257 13.1897C18.2954 12.9801 17.1729 12.7307 16.0603 12.4418L19.7803 17.9191C27.7531 20.7576 37.181 20.7576 45.1557 17.923ZM17.5444 21.2206C26.8735 24.8244 38.0858 24.8244 47.4148 21.2168C51.3096 25.3216 54.5678 29.9865 57.081 35.0563C59.6986 40.3999 61.1246 45.7416 60.8921 50.3451C60.6673 54.7878 58.9197 58.5834 54.9285 61.4044C50.7687 64.3436 43.7743 66.4942 32.5755 66.4942C21.3671 66.4942 14.3378 64.3804 10.1393 61.4741C6.11896 58.688 4.3539 54.9448 4.10396 50.5621C3.8424 46.009 5.2374 40.6944 7.84721 35.314C10.3369 30.1835 13.8128 25.2448 17.5444 21.2206ZM15.3163 8.21225C16.8663 8.67338 18.486 9.07444 20.129 9.37862C24.2946 10.1459 28.4738 10.2583 32.0369 9.22556C36.1913 8.01531 40.4167 7.06346 44.6888 6.3755C41.1218 5.30213 36.9523 4.5 32.5736 4.5C25.8989 4.5 19.6737 6.36194 15.3143 8.21225H15.3163ZM11.4839 5.70319C16.2385 3.37625 24.0389 0.625 32.5775 0.625C40.9378 0.625 48.5308 3.26194 53.2603 5.55787L53.5277 5.68769C54.9537 6.39294 56.1045 7.05944 56.9144 7.6L49.7553 18.0625C66.2551 34.9304 79 70.3692 32.5755 70.3692C-13.8489 70.3692 -1.44698 35.5736 15.1961 18.0625L8.08553 7.6C8.63384 7.24156 9.33134 6.825 10.1586 6.38325C10.5694 6.16238 11.0111 5.93569 11.4839 5.70512V5.70319Z" fill="white"/>
<path fill-rule="evenodd" clip-rule="evenodd" d="M30.5625 35.5C29.5348 35.5 28.5492 35.9083 27.8225 36.635C27.0958 37.3617 26.6875 38.3473 26.6875 39.375C26.6875 40.4027 27.0958 41.3883 27.8225 42.115C28.5492 42.8417 29.5348 43.25 30.5625 43.25H34.4375C36.4929 43.25 38.4642 44.0665 39.9176 45.5199C41.371 46.9733 42.1875 48.9446 42.1875 51C42.1875 53.0554 41.371 55.0267 39.9176 56.4801C38.4642 57.9335 36.4929 58.75 34.4375 58.75H30.5625C28.9596 58.75 27.3961 58.2531 26.0873 57.3277C24.7785 56.4023 23.7887 55.0939 23.2543 53.5827C23.1611 53.341 23.1173 53.083 23.1255 52.8241C23.1337 52.5652 23.1938 52.3105 23.3022 52.0752C23.4106 51.8399 23.565 51.6287 23.7564 51.4541C23.9478 51.2796 24.1723 51.1451 24.4166 51.0588C24.6609 50.9725 24.9199 50.9361 25.1785 50.9517C25.4371 50.9673 25.69 51.0345 25.9221 51.1495C26.1543 51.2645 26.361 51.4249 26.53 51.6212C26.6991 51.8175 26.8271 52.0457 26.9064 52.2923C27.1741 53.048 27.6693 53.7021 28.3241 54.1646C28.9788 54.6271 29.7609 54.8753 30.5625 54.875H34.4375C35.4652 54.875 36.4508 54.4667 37.1775 53.74C37.9042 53.0133 38.3125 52.0277 38.3125 51C38.3125 49.9723 37.9042 48.9867 37.1775 48.26C36.4508 47.5333 35.4652 47.125 34.4375 47.125H30.5625C28.5071 47.125 26.5358 46.3085 25.0824 44.8551C23.629 43.4017 22.8125 41.4304 22.8125 39.375C22.8125 37.3196 23.629 35.3483 25.0824 33.8949C26.5358 32.4415 28.5071 31.625 30.5625 31.625H34.4375C36.0404 31.625 37.6039 32.1219 38.9127 33.0473C40.2215 33.9727 41.2113 35.2811 41.7457 36.7923C41.8389 37.034 41.8827 37.292 41.8745 37.5509C41.8663 37.8098 41.8062 38.0645 41.6978 38.2998C41.5894 38.5351 41.435 38.7463 41.2436 38.9209C41.0522 39.0954 40.8277 39.2299 40.5834 39.3162C40.3391 39.4025 40.0801 39.4389 39.8215 39.4233C39.5629 39.4077 39.31 39.3405 39.0779 39.2255C38.8457 39.1105 38.639 38.9501 38.47 38.7538C38.3009 38.5575 38.1729 38.3293 38.0936 38.0827C37.8259 37.327 37.3307 36.6729 36.6759 36.2104C36.0212 35.7479 35.2391 35.4997 34.4375 35.5H30.5625Z" fill="white"/>
<path fill-rule="evenodd" clip-rule="evenodd" d="M30.5625 60.6875V29.6875H34.4375V60.6875H30.5625Z" fill="white"/>
</svg>
