<svg width="76" height="63" viewBox="0 0 76 63" fill="none" xmlns="http://www.w3.org/2000/svg">
<path d="M30.875 0.75C28.9853 0.75 27.1731 1.50067 25.8369 2.83686C24.5007 4.17306 23.75 5.98533 23.75 7.875V10.25H7.125C5.23533 10.25 3.42306 11.0007 2.08686 12.3369C0.750667 13.6731 0 15.4853 0 17.375L0 55.375C0 57.2647 0.750667 59.0769 2.08686 60.4131C3.42306 61.7493 5.23533 62.5 7.125 62.5H68.875C70.7647 62.5 72.5769 61.7493 73.9131 60.4131C75.2493 59.0769 76 57.2647 76 55.375V17.375C76 15.4853 75.2493 13.6731 73.9131 12.3369C72.5769 11.0007 70.7647 10.25 68.875 10.25H52.25V7.875C52.25 5.98533 51.4993 4.17306 50.1631 2.83686C48.8269 1.50067 47.0147 0.75 45.125 0.75H30.875ZM30.875 5.5H45.125C45.7549 5.5 46.359 5.75022 46.8044 6.19562C47.2498 6.64102 47.5 7.24511 47.5 7.875V10.25H28.5V7.875C28.5 7.24511 28.7502 6.64102 29.1956 6.19562C29.641 5.75022 30.2451 5.5 30.875 5.5ZM39.8335 38.3415L71.25 29.9673V55.375C71.25 56.0049 70.9998 56.609 70.5544 57.0544C70.109 57.4998 69.5049 57.75 68.875 57.75H7.125C6.49511 57.75 5.89102 57.4998 5.44562 57.0544C5.00022 56.609 4.75 56.0049 4.75 55.375V29.9625L36.1665 38.3415C37.3679 38.6614 38.6321 38.6614 39.8335 38.3415ZM7.125 15H68.875C69.5049 15 70.109 15.2502 70.5544 15.6956C70.9998 16.141 71.25 16.7451 71.25 17.375V25.051L38.6127 33.753C38.2113 33.8602 37.7887 33.8602 37.3872 33.753L4.75 25.051V17.375C4.75 16.7451 5.00022 16.141 5.44562 15.6956C5.89102 15.2502 6.49511 15 7.125 15Z" fill="white"/>
</svg>
