<svg width="30" height="32" viewBox="0 0 30 32" fill="none" xmlns="http://www.w3.org/2000/svg">
<path d="M15.6424 31.9419C15.0894 31.8651 14.8356 31.7859 14.8356 31.6899C14.8356 31.649 14.9965 31.1343 15.1931 30.546C15.6556 29.1619 15.8829 28.0275 15.9398 26.819C15.9894 25.7664 15.9282 25.6856 15.6924 26.4922C15.1209 28.4469 13.7934 31.2911 13.4525 31.2911C13.2129 31.2911 12.0107 30.8173 11.0033 30.3258C10.0517 29.8616 8.54251 28.9259 8.54251 28.8001C8.54251 28.7649 8.63755 28.6928 8.75372 28.6398C9.01212 28.5222 9.72297 27.9795 10.3119 27.4504C11.0107 26.8226 12.339 25.1614 12.1421 25.1614C12.1228 25.1614 11.7211 25.4314 11.2495 25.7615C9.75752 26.8057 7.95547 27.581 7.02063 27.581C6.68929 27.581 6.6039 27.5292 5.75236 26.8109C5.2502 26.3873 4.35645 25.563 3.76625 24.979L2.69315 23.9173L3.1369 23.8472C4.12165 23.6919 5.54948 23.2935 6.10797 23.0182C6.43301 22.858 6.68669 22.7147 6.6717 22.6997C6.65669 22.6847 6.13662 22.7065 5.51595 22.7481C4.35393 22.8259 2.29077 22.7342 1.90491 22.5875C1.41516 22.4014 0.26827 20.5057 0.0711626 19.5566C0.0189638 19.3052 -0.0112857 19.0871 0.00394277 19.0719C0.019159 19.0567 0.249261 19.0939 0.515246 19.1547C1.97247 19.4878 5.25109 19.7218 7.3323 19.6413C10.3549 19.5243 12.5715 19.1262 14.0805 18.4292L14.6727 18.1557L14.624 17.8007C14.5659 17.3765 14.6975 17.0808 15.1754 16.5625C15.7595 15.9291 15.8837 15.9793 18.3441 17.8412C19.5026 18.7179 19.5515 18.8578 19.0137 19.7576C18.8402 20.0479 18.6559 20.243 18.4802 20.3221L18.2118 20.4431L18.2617 20.927C18.2892 21.1932 18.3657 21.9372 18.4319 22.5805C18.498 23.2237 18.5744 24.6226 18.6017 25.6893C18.6909 29.1871 18.3389 31.2426 17.5531 31.8114C17.2986 31.9957 16.4484 32.0537 15.6424 31.9419ZM18.571 15.9844C18.0295 15.5977 17.5984 15.2445 17.613 15.1997C17.6277 15.1548 20.0577 11.7818 23.013 7.7041C26.3368 3.11806 28.4808 0.230425 28.6338 0.133589C29.2189 -0.236785 30.0074 0.20897 29.9999 0.905967C29.9978 1.0938 29.9526 1.34461 29.8991 1.46333C29.7833 1.72046 19.6542 16.6869 19.5958 16.6872C19.5736 16.6873 19.1124 16.371 18.571 15.9844ZM5.32697 15.341C5.06362 14.3544 4.12084 13.4951 3.12413 13.3333L2.77384 13.2764L3.23564 13.1384C3.8565 12.9529 4.35518 12.6495 4.69883 12.2481C5.02367 11.8688 5.31034 11.3012 5.37345 10.9124C5.41665 10.6463 5.55727 10.614 5.55739 10.8702C5.55755 11.2009 6.03184 11.9899 6.47264 12.3926C6.8906 12.7745 7.6124 13.1439 7.94043 13.1439C8.1646 13.1439 8.05758 13.2875 7.79621 13.3373C7.39612 13.4137 6.75068 13.7381 6.41814 14.0299C6.00775 14.3902 5.79891 14.7022 5.59921 15.2535L5.42903 15.7234L5.32697 15.341ZM14.1919 11.9108C14.1863 11.4486 13.6208 10.826 13.0168 10.6169L12.7053 10.5091L13.1538 10.3038C13.6394 10.0816 13.9632 9.72823 14.1345 9.23362L14.2407 8.92704L14.4663 9.38796C14.7071 9.88006 15.1479 10.2705 15.5664 10.3624C15.8136 10.4167 15.8961 10.563 15.6795 10.563C15.48 10.563 14.9748 10.8516 14.7395 11.1C14.6201 11.2261 14.4484 11.4925 14.3581 11.6922C14.2677 11.8918 14.1929 11.9902 14.1919 11.9108ZM9.36993 7.71315C9.18488 7.02149 8.4942 6.33031 7.77636 6.11843C7.5765 6.05944 7.41298 5.99072 7.41298 5.96573C7.41298 5.94074 7.56728 5.87436 7.75587 5.81821C8.52222 5.59005 9.1776 4.87818 9.39688 4.03574C9.49277 3.66735 9.49288 3.66726 9.55364 3.90906C9.78556 4.83198 10.5486 5.60037 11.4667 5.83537L11.8908 5.94394L11.6084 6.00431C10.7481 6.18823 9.95517 6.83173 9.64319 7.59908L9.45998 8.04971L9.36993 7.71315Z" fill="white"/>
</svg>
