<svg width="392" height="444" viewBox="0 0 392 444" fill="none" xmlns="http://www.w3.org/2000/svg">
<g opacity="0.8">
<ellipse cx="248.339" cy="248.262" rx="241.096" ry="241.016" transform="rotate(1.74888 248.339 248.262)" fill="#546652"/>
<path d="M249.495 406.722C243.972 405.781 241.452 404.906 241.481 403.94C241.494 403.529 243.265 398.4 245.417 392.542C250.481 378.76 253.109 367.418 254.051 355.277C254.872 344.703 254.283 343.872 251.67 351.914C245.338 371.404 231.151 399.609 227.733 399.505C225.33 399.431 213.418 394.297 203.466 389.044C194.065 384.083 179.217 374.208 179.256 372.942C179.267 372.588 180.242 371.891 181.423 371.395C184.051 370.29 191.347 365.049 197.416 359.906C204.617 353.804 218.448 337.499 216.474 337.439C216.28 337.433 212.169 340.027 207.337 343.203C192.054 353.25 173.743 360.498 164.368 360.212C161.045 360.11 160.204 359.563 151.885 352.076C146.979 347.661 138.269 339.095 132.529 333.039L122.093 322.03L126.565 321.461C136.489 320.2 150.93 316.629 156.616 314.031C159.925 312.519 162.513 311.155 162.367 311C162.222 310.844 156.999 310.904 150.762 311.132C139.084 311.559 118.421 310.004 114.596 308.411C109.742 306.388 98.822 286.967 97.1368 277.358C96.6905 274.814 96.4541 272.61 96.6115 272.461C96.7688 272.313 99.065 272.759 101.714 273.452C116.226 277.249 149.035 280.607 169.932 280.434C200.282 280.183 222.634 276.856 237.981 270.307L244.005 267.737L243.625 264.151C243.172 259.865 244.584 256.931 249.536 251.863C255.587 245.67 256.818 246.213 280.921 265.697C292.271 274.871 292.718 276.294 287.049 285.181C285.219 288.048 283.31 289.954 281.524 290.697L278.796 291.832L279.147 296.715C279.341 299.401 279.88 306.91 280.346 313.401C280.812 319.892 281.148 333.989 281.094 344.727C280.915 379.943 276.753 400.513 268.698 405.995C266.088 407.77 257.544 408.094 249.495 406.722ZM283.767 247.087C278.455 243.031 274.241 239.346 274.401 238.899C274.561 238.452 299.968 205.264 330.859 165.148C365.602 120.03 387.99 91.637 389.554 90.7097C395.537 87.1629 403.307 91.8887 403.019 98.8982C402.94 100.787 402.409 103.296 401.836 104.474C400.596 107.026 294.415 254.486 293.829 254.472C293.606 254.466 289.078 251.143 283.767 247.087ZM151.142 236.559C148.804 226.553 139.612 217.62 129.666 215.687L126.171 215.007L130.844 213.761C137.128 212.085 142.222 209.185 145.792 205.253C149.166 201.535 152.216 195.913 152.968 192.022C153.483 189.358 154.903 189.076 154.826 191.654C154.726 194.981 159.24 203.062 163.537 207.249C167.612 211.219 174.737 215.157 178.027 215.257C180.275 215.326 179.157 216.737 176.521 217.158C172.485 217.804 165.912 220.87 162.488 223.704C158.261 227.202 156.071 230.277 153.899 235.762L152.048 240.437L151.142 236.559ZM241.101 204.765C241.186 200.114 235.707 193.678 229.714 191.39L226.622 190.21L231.183 188.282C236.122 186.195 239.478 182.739 241.348 177.816L242.507 174.764L244.628 179.47C246.892 184.495 251.193 188.558 255.361 189.61C257.823 190.232 258.606 191.729 256.434 191.663C254.434 191.602 249.278 194.35 246.842 196.777C245.606 198.009 243.802 200.637 242.834 202.617C241.866 204.598 241.087 205.564 241.101 204.765ZM194.031 161.061C192.388 154.046 185.673 146.882 178.539 144.53C176.553 143.876 174.934 143.134 174.942 142.883C174.949 142.631 176.517 142.011 178.426 141.504C186.182 139.443 192.973 132.482 195.431 124.075C196.506 120.398 196.507 120.397 197.042 122.848C199.084 132.204 206.501 140.168 215.636 142.813L219.856 144.035L217.005 144.556C208.321 146.142 200.171 152.373 196.807 159.997L194.831 164.474L194.031 161.061Z" fill="white"/>
</g>
</svg>
