<svg width="106" height="83" viewBox="0 0 106 83" fill="none" xmlns="http://www.w3.org/2000/svg">
<path d="M23.8862 82.8106C23.9095 82.8261 23.9405 82.8183 23.9638 82.8339C24.1469 82.9361 24.3516 82.993 24.561 82.9999C24.6763 82.9997 24.7911 82.984 24.9023 82.9532L53 75.2602L81.0978 82.9532C81.2089 82.984 81.3237 82.9997 81.439 82.9999C81.648 82.9936 81.8523 82.9357 82.0337 82.8313C82.0595 82.8183 82.088 82.8235 82.1112 82.808L105.38 68.5423C105.62 68.3943 105.805 68.1715 105.908 67.908C106.011 67.6444 106.025 67.3544 105.948 67.0821L93.0628 21.6914C93.0101 21.5024 92.9152 21.3279 92.7853 21.181C92.6554 21.0342 92.494 20.919 92.3131 20.844C92.1323 20.769 91.9368 20.7363 91.7415 20.7483C91.5462 20.7603 91.3562 20.8168 91.1859 20.9133L78.3573 28.1343C78.0763 28.3123 77.8743 28.5917 77.7929 28.9149C77.7115 29.2381 77.7571 29.5803 77.9201 29.8707C78.0831 30.1611 78.3511 30.3776 78.6688 30.4754C78.9864 30.5732 79.3293 30.5448 79.6267 30.3961L91.0256 23.9765L103.195 66.8408L82.4732 79.5476L77.5506 40.0422C77.5081 39.7007 77.3321 39.3901 77.0613 39.1787C76.7905 38.9674 76.4472 38.8726 76.1067 38.9152C75.7663 38.9579 75.4567 39.1345 75.246 39.4061C75.0353 39.6778 74.9409 40.0223 74.9834 40.3638L79.9137 79.9419L54.2927 72.9258V65.8448C54.2927 65.5009 54.1565 65.171 53.9141 64.9278C53.6716 64.6846 53.3428 64.548 53 64.548C52.6572 64.548 52.3284 64.6846 52.0859 64.9278C51.8435 65.171 51.7073 65.5009 51.7073 65.8448V72.9258L26.0838 79.9419L31.0141 40.3638C31.0351 40.1947 31.0227 40.0231 30.9777 39.8588C30.9326 39.6945 30.8557 39.5407 30.7514 39.4061C30.6471 39.2716 30.5174 39.159 30.3697 39.0748C30.2221 38.9906 30.0593 38.9364 29.8907 38.9152C29.7221 38.8941 29.5511 38.9065 29.3873 38.9517C29.2235 38.9969 29.0702 39.0741 28.9361 39.1787C28.802 39.2834 28.6898 39.4135 28.6058 39.5616C28.5219 39.7098 28.4678 39.8731 28.4468 40.0422L23.5268 79.5476L2.80513 66.8434L14.9744 23.9817L26.3733 30.4013C26.6707 30.55 27.0136 30.5784 27.3312 30.4806C27.6489 30.3828 27.9169 30.1663 28.0799 29.8759C28.2429 29.5854 28.2885 29.2432 28.2071 28.9201C28.1257 28.5969 27.9237 28.3174 27.6427 28.1395L14.8116 20.9159C14.6416 20.8183 14.4516 20.761 14.2562 20.7485C14.0607 20.7359 13.865 20.7685 13.6841 20.8436C13.5031 20.9187 13.3417 21.0344 13.2122 21.1818C13.0828 21.3293 12.9887 21.5045 12.9372 21.694L0.0517146 67.0847C-0.0262198 67.357 -0.0127621 67.6474 0.0900151 67.9113C0.192792 68.1751 0.379188 68.3978 0.620495 68.5449L23.8862 82.8106Z" fill="white"/>
<path d="M52.1236 60.6107C52.3609 60.8305 52.6717 60.9532 52.9946 60.9547C53.3176 60.9561 53.6294 60.8362 53.8687 60.6185C54.7296 59.8326 74.9756 41.1939 74.9756 22.0469C74.9756 9.68247 65.3245 0 53 0C40.6756 0 31.0244 9.68247 31.0244 22.0469C31.0244 40.8619 51.2627 59.8119 52.1236 60.6107ZM53 2.59375C64.0525 2.59375 72.3903 10.956 72.3903 22.0469C72.3903 37.861 56.8962 54.046 53.0078 57.8588C49.1271 54.0019 33.6098 37.6042 33.6098 22.0469C33.6098 10.956 41.9476 2.59375 53 2.59375Z" fill="white"/>
<path d="M64.634 22.0469C64.634 15.6118 59.4142 10.375 52.9999 10.375C46.5856 10.375 41.3657 15.6118 41.3657 22.0469C41.3657 28.482 46.5856 33.7188 52.9999 33.7188C59.4142 33.7188 64.634 28.482 64.634 22.0469ZM52.9999 31.125C48.0101 31.125 43.9511 27.0528 43.9511 22.0469C43.9511 17.0409 48.0101 12.9688 52.9999 12.9688C57.9896 12.9688 62.0487 17.0409 62.0487 22.0469C62.0487 27.0528 57.9896 31.125 52.9999 31.125Z" fill="white"/>
</svg>
