<svg width="60" height="60" viewBox="0 0 60 60" fill="none" xmlns="http://www.w3.org/2000/svg">
  <ellipse cx="23.5522" cy="27.5349" rx="23.5522" ry="23.5862" fill="white"/>
  <path d="M25.164 43.1947C24.6213 43.1192 24.3723 43.0413 24.3723 42.9469C24.3723 42.9067 24.5301 42.4007 24.723 41.8224C25.177 40.4617 25.4 39.3465 25.4559 38.1584C25.5045 37.1236 25.4445 37.0442 25.2131 37.8371C24.6522 39.7588 23.3495 42.5549 23.015 42.5549C22.7798 42.5549 21.6001 42.0891 20.6114 41.606C19.6776 41.1496 18.1966 40.2297 18.1966 40.1061C18.1966 40.0714 18.2899 40.0005 18.4039 39.9485C18.6574 39.8328 19.355 39.2993 19.933 38.7792C20.6187 38.162 21.9222 36.5289 21.7291 36.5289C21.7101 36.5289 21.3159 36.7943 20.8531 37.1188C19.3889 38.1453 17.6205 38.9075 16.7031 38.9075C16.3779 38.9075 16.2941 38.8566 15.4585 38.1505C14.9657 37.7341 14.0886 36.9237 13.5094 36.3496L12.4564 35.3058L12.8918 35.2369C13.8582 35.0842 15.2594 34.6925 15.8075 34.422C16.1264 34.2645 16.3754 34.1236 16.3607 34.1088C16.3459 34.0941 15.8356 34.1155 15.2265 34.1564C14.0861 34.2329 12.0615 34.1427 11.6828 33.9985C11.2022 33.8155 10.0767 31.9519 9.88328 31.0189C9.83206 30.7717 9.80237 30.5573 9.81732 30.5423C9.83225 30.5274 10.0581 30.564 10.3191 30.6238C11.7491 30.9513 14.9666 31.1813 17.0089 31.1021C19.9752 30.9871 22.1504 30.5957 23.6312 29.9106L24.2124 29.6417L24.1646 29.2927C24.1076 28.8757 24.2368 28.585 24.7058 28.0754C25.2789 27.4528 25.4008 27.5021 27.8153 29.3325C28.9522 30.1944 29.0002 30.3319 28.4725 31.2164C28.3022 31.5018 28.1213 31.6936 27.9489 31.7715L27.6855 31.8904L27.7345 32.3661C27.7614 32.6278 27.8365 33.3593 27.9015 33.9916C27.9664 34.6239 28.0414 35.9992 28.0681 37.0478C28.1557 40.4865 27.8102 42.5072 27.0391 43.0664C26.7893 43.2475 25.9549 43.3046 25.164 43.1947V43.1947ZM28.0379 27.5071C27.5066 27.1269 27.0835 26.7798 27.0979 26.7356C27.1122 26.6915 29.4969 23.3756 32.3971 19.3669C35.6589 14.8584 37.7629 12.0196 37.913 11.9244C38.4872 11.5603 39.261 11.9985 39.2537 12.6837C39.2516 12.8684 39.2072 13.115 39.1547 13.2317C39.0411 13.4844 29.1009 28.1978 29.0436 28.1981C29.0218 28.1981 28.5693 27.8872 28.0379 27.5071V27.5071ZM15.041 26.8746C14.7826 25.9047 13.8574 25.06 12.8793 24.9008L12.5355 24.8449L12.9887 24.7093C13.598 24.5269 14.0874 24.2286 14.4246 23.834C14.7434 23.4611 15.0247 22.9031 15.0866 22.5209C15.129 22.2593 15.267 22.2276 15.2671 22.4794C15.2673 22.8046 15.7327 23.5801 16.1653 23.9761C16.5755 24.3515 17.2838 24.7147 17.6057 24.7147C17.8257 24.7147 17.7207 24.8558 17.4642 24.9048C17.0716 24.9799 16.4382 25.2988 16.1118 25.5857C15.7091 25.9398 15.5042 26.2466 15.3082 26.7886L15.1412 27.2505L15.041 26.8746ZM23.7406 23.5024C23.735 23.048 23.1801 22.4359 22.5874 22.2304L22.2817 22.1244L22.7218 21.9226C23.1984 21.7042 23.5162 21.3568 23.6843 20.8705L23.7885 20.5691L24.0098 21.0222C24.2462 21.506 24.6788 21.8899 25.0894 21.9802C25.332 22.0336 25.413 22.1774 25.2005 22.1774C25.0047 22.1774 24.5089 22.4612 24.278 22.7054C24.1608 22.8293 23.9923 23.0912 23.9036 23.2875C23.8149 23.4837 23.7416 23.5804 23.7406 23.5024V23.5024ZM19.0086 19.3758C18.827 18.6958 18.1492 18.0163 17.4447 17.808C17.2486 17.75 17.0881 17.6825 17.0881 17.6579C17.0881 17.6333 17.2395 17.5681 17.4246 17.5129C18.1767 17.2886 18.8198 16.5888 19.035 15.7606C19.1291 15.3984 19.1292 15.3983 19.1888 15.636C19.4164 16.5433 20.1653 17.2987 21.0662 17.5298L21.4824 17.6365L21.2052 17.6958C20.361 17.8766 19.5829 18.5093 19.2767 19.2636L19.0969 19.7066L19.0086 19.3758Z" fill="#546652"/>
</svg>