<svg width="54" height="56" viewBox="0 0 54 56" fill="none" xmlns="http://www.w3.org/2000/svg">
<path d="M11.9852 55.7707C5.59503 55.31 2.43394 53.823 0.811543 50.5148C0.0333263 48.928 -0.017212 48.6631 0.00339007 46.28C0.0206778 44.2842 0.162805 43.3198 0.664819 41.793C2.6395 35.787 7.61847 30.663 14.3012 27.7595L15.9854 27.0278L14.6177 25.4893C6.92884 16.8405 11.2571 3.19591 22.599 0.329088C24.9128 -0.255764 28.6937 -0.0399211 30.9994 0.808637C37.609 3.24111 41.6631 9.37582 41.203 16.2486C40.9638 19.8226 39.1266 23.9628 36.7857 26.2038L36.0222 26.9346L38.9943 28.4057C42.5142 30.1479 42.7672 30.3784 42.1678 31.2967L41.7388 31.954L40.6978 31.3007C39.0361 30.2576 35.6724 28.7114 34.063 28.2508C33.2479 28.0175 32.4982 27.7505 32.3971 27.6575C32.2959 27.5644 32.9385 26.9602 33.825 26.3148C39.3399 22.2999 41.0573 15.1638 37.9814 9.04452C36.9562 7.00493 34.1026 4.14499 32.1587 3.20896C28.1749 1.29059 23.9229 1.25271 20.0719 3.10129C17.95 4.11983 14.91 7.12023 13.9393 9.15392C10.9379 15.4422 12.7885 22.5991 18.4231 26.4947C19.1965 27.0294 19.7417 27.5478 19.6347 27.6468C19.5277 27.7457 18.7578 28.0163 17.9238 28.248C15.5208 28.9157 11.5356 31.0201 9.28301 32.8109C3.61836 37.3142 0.553532 44.0186 1.98179 48.7826C2.50836 50.539 3.43845 51.5946 5.24681 52.4882C8.05455 53.8758 9.6857 54.0442 21.7237 54.1894L32.5995 54.3206L32.5059 55.1253L32.4123 55.9301L23.5254 55.946C18.6376 55.9546 13.4445 55.8759 11.9851 55.7706L11.9852 55.7707ZM41.8495 55.7699C38.7648 55.1605 36.2348 53.1858 34.7979 50.2658C33.8734 48.3871 33.8449 48.2478 33.8572 45.6527C33.8682 43.3262 33.9553 42.7905 34.5243 41.5499C36.6932 36.8207 41.9696 34.4639 46.9387 36.0046C51.6553 37.467 54.5196 42.0256 53.9214 47.1179C53.4243 51.3506 49.9856 54.9847 45.7387 55.7656C44.0446 56.0771 43.4083 56.0778 41.8495 55.7694V55.7699ZM47.5269 53.2447C52.8308 50.6485 53.8911 43.6962 49.5979 39.665C47.7412 37.9216 46.4136 37.4008 43.8266 37.4009C41.9508 37.4011 41.4914 37.4959 40.2015 38.1491C35.8926 40.331 34.2526 45.4319 36.4994 49.6636C38.6868 53.7832 43.3397 55.2942 47.5269 53.2447ZM43.0685 48.5739V46.6552H41.1732H39.2778V45.7673V44.8794H41.1732H43.0685V42.9768V41.0742H43.953H44.8375V42.9768V44.8794H46.6064H48.3754V45.7673V46.6552H46.6175H44.8596L44.7854 48.4944L44.7112 50.3335L43.8899 50.413L43.0685 50.4925L43.0685 48.5739Z" fill="#313630"/>
</svg>
