<svg width="56" height="50" viewBox="0 0 56 50" fill="none" xmlns="http://www.w3.org/2000/svg">
<path d="M23.9832 49.5885C14.429 47.6573 6.82362 40.9957 3.98712 32.074C3.37409 30.1458 3.22166 29.0466 3.10822 25.7361L2.97097 21.731L1.89042 22.2885C0.880365 22.8097 0.779153 22.8172 0.339017 22.4026C0.0800439 22.1587 -0.0610446 21.785 0.0254782 21.5723C0.254407 21.0095 4.29696 18.6995 4.75979 18.8671C5.33731 19.0762 7.53463 22.4556 7.53463 23.1347C7.53463 24.0869 6.73029 24.1349 5.84023 23.236L5.04214 22.43L4.84376 23.678C4.55572 25.4901 5.17429 29.6112 6.1497 32.3787C7.35116 35.7876 9.20365 38.593 12.0322 41.2871C15.6429 44.7262 18.7401 46.4138 23.7726 47.6841C26.8454 48.4598 32.3552 48.4558 35.5037 47.6761C40.5086 46.436 45.5818 43.3798 48.778 39.6796C50.4688 37.7221 52.8275 33.4203 53.5 31.0676C54.1356 28.8438 54.3637 23.3899 53.9199 21.0258C53.202 17.2023 51.728 14.0669 49.1033 10.7807C46.1922 7.13588 42.1155 4.43091 37.0498 2.78281C34.4407 1.93399 34.2695 1.91402 29.6007 1.91443C25.1221 1.91483 24.6721 1.96154 22.4327 2.6582C17.914 4.06402 13.5498 6.7329 10.8738 9.72699C9.53011 11.2303 8.58228 11.4292 8.43516 10.2385C8.36971 9.7086 8.77543 9.15821 10.3305 7.66766C13.9293 4.21813 18.0998 1.91058 22.9949 0.660306C26.4354 -0.21841 32.7589 -0.220453 36.1877 0.656299C43.8963 2.62685 50.0781 7.42424 53.5052 14.0954C55.5027 17.9837 56.017 20.253 55.9996 25.101C55.9818 30.0345 55.4981 32.0615 53.3731 36.1066C49.6872 43.1232 42.9754 48.0476 34.9817 49.6003C32.2144 50.1378 26.6697 50.1322 23.9832 49.5892V49.5885ZM17.1481 41.2241C16.6639 40.7673 16.6639 20.8366 17.1481 20.3798C17.3337 20.2048 18.2075 20.0616 19.09 20.0616H20.6946L20.7907 16.1499C20.8829 12.3963 20.9202 12.1813 21.7156 10.8266C23.3644 8.0185 25.36 7.06702 29.6007 7.06702C33.8414 7.06702 35.837 8.0185 37.4857 10.8266C38.2812 12.1813 38.3186 12.3963 38.4107 16.1499L38.5068 20.0616H40.1114C40.9939 20.0616 41.8677 20.2048 42.0533 20.3798C42.5375 20.8366 42.5375 40.7673 42.0533 41.2241C41.5681 41.6818 17.6333 41.6818 17.1481 41.2241H17.1481ZM40.4229 30.802V21.9179H29.6007H18.7785V30.802V39.686H29.6007H40.4229V30.802ZM26.8461 35.5402C26.7378 35.4381 26.6447 34.5688 26.6392 33.6086C26.6339 32.5981 26.4601 31.5835 26.2275 31.1998C25.6517 30.2494 25.7061 28.3076 26.336 27.3332C26.9241 26.4233 28.444 25.6307 29.6007 25.6307C30.7574 25.6307 32.2773 26.4233 32.8655 27.3332C33.4719 28.2714 33.5646 30.1584 33.0465 31.0183C32.8546 31.3369 32.6332 32.4926 32.5546 33.5865L32.4117 35.5755L29.7273 35.6507C28.2509 35.6921 26.9544 35.6427 26.8461 35.5402V35.5402ZM30.5845 32.6129C30.5845 31.5813 30.7317 30.9555 31.053 30.6205C31.7398 29.9046 31.6528 28.5655 30.8813 27.9761C29.0383 26.5681 26.6349 28.6492 28.0373 30.4387C28.4586 30.9763 28.6169 31.5795 28.6169 32.6476V34.1169H29.6007H30.5845V32.6129ZM24.6831 17.4759C24.684 16.0538 24.8129 14.4545 24.9697 13.9219C25.2907 12.8317 27.0793 11.1529 28.2034 10.8867C29.4573 10.5898 31.5856 10.926 32.5491 11.5732C34.0378 12.5733 34.5066 13.9184 34.5137 17.2107L34.5201 20.0616H35.5039H36.4878L36.4814 16.5477C36.474 12.4927 36.1242 11.4102 34.3817 10.0551C31.9665 8.17692 27.2349 8.17692 24.8197 10.0551C23.0772 11.4102 22.7271 12.4927 22.72 16.5477L22.7136 20.0616H23.6975H24.6813L24.6824 17.4759H24.6831ZM32.5522 17.1802C32.5522 14.6929 32.4748 14.2059 31.9856 13.6193C31.1407 12.6059 29.7477 12.2505 28.5191 12.7348C27.0278 13.3226 26.6492 14.2666 26.6492 17.3965V20.0616H29.6007H32.5522V17.1802Z" fill="#313630"/>
</svg>
