<svg width="263" height="57" viewBox="0 0 263 57" fill="none" xmlns="http://www.w3.org/2000/svg">
<path d="M78.6809 40.296C78.9849 40.296 79.2489 40.416 79.4729 40.656L81.7049 43.08C80.2969 44.776 78.5689 46.088 76.5209 47.016C74.4729 47.928 72.0249 48.384 69.1769 48.384C66.6489 48.384 64.3609 47.952 62.3129 47.088C60.2809 46.208 58.5449 44.992 57.1049 43.44C55.6649 41.872 54.5529 40.008 53.7689 37.848C53.0009 35.688 52.6169 33.312 52.6169 30.72C52.6169 28.128 53.0249 25.752 53.8409 23.592C54.6729 21.416 55.8329 19.552 57.3209 18C58.8249 16.432 60.6169 15.216 62.6969 14.352C64.7929 13.488 67.0969 13.056 69.6089 13.056C72.1049 13.056 74.3049 13.464 76.2089 14.28C78.1289 15.08 79.7929 16.152 81.2009 17.496L79.3529 20.112C79.2249 20.288 79.0729 20.44 78.8969 20.568C78.7209 20.696 78.4809 20.76 78.1769 20.76C77.8569 20.76 77.4889 20.616 77.0729 20.328C76.6729 20.024 76.1529 19.696 75.5129 19.344C74.8889 18.976 74.0969 18.648 73.1369 18.36C72.1929 18.056 71.0089 17.904 69.5849 17.904C67.9369 17.904 66.4249 18.192 65.0489 18.768C63.6729 19.344 62.4889 20.184 61.4969 21.288C60.5049 22.392 59.7289 23.736 59.1689 25.32C58.6249 26.904 58.3529 28.704 58.3529 30.72C58.3529 32.752 58.6409 34.568 59.2169 36.168C59.7929 37.752 60.5849 39.096 61.5929 40.2C62.6009 41.288 63.7849 42.12 65.1449 42.696C66.5049 43.272 67.9689 43.56 69.5369 43.56C70.4969 43.56 71.3529 43.512 72.1049 43.416C72.8729 43.304 73.5769 43.136 74.2169 42.912C74.8569 42.672 75.4569 42.376 76.0169 42.024C76.5929 41.672 77.1609 41.24 77.7209 40.728C78.0409 40.44 78.3609 40.296 78.6809 40.296ZM90.8519 12.48V48H85.6919V12.48H90.8519ZM113.277 33C113.277 32.136 113.149 31.336 112.893 30.6C112.653 29.848 112.293 29.2 111.813 28.656C111.333 28.096 110.733 27.664 110.013 27.36C109.309 27.04 108.493 26.88 107.565 26.88C105.693 26.88 104.221 27.416 103.149 28.488C102.077 29.56 101.397 31.064 101.109 33H113.277ZM100.965 36.168C101.029 37.56 101.245 38.768 101.613 39.792C101.981 40.8 102.469 41.64 103.077 42.312C103.701 42.984 104.437 43.488 105.285 43.824C106.149 44.144 107.109 44.304 108.165 44.304C109.173 44.304 110.045 44.192 110.781 43.968C111.517 43.728 112.157 43.472 112.701 43.2C113.245 42.912 113.709 42.656 114.093 42.432C114.477 42.192 114.829 42.072 115.149 42.072C115.565 42.072 115.885 42.232 116.109 42.552L117.573 44.448C116.965 45.168 116.277 45.776 115.509 46.272C114.741 46.768 113.925 47.176 113.061 47.496C112.197 47.8 111.309 48.016 110.397 48.144C109.485 48.288 108.597 48.36 107.733 48.36C106.037 48.36 104.461 48.08 103.005 47.52C101.565 46.944 100.309 46.104 99.2369 45C98.1809 43.896 97.3489 42.528 96.7409 40.896C96.1489 39.264 95.8529 37.384 95.8529 35.256C95.8529 33.56 96.1169 31.976 96.6449 30.504C97.1889 29.032 97.9569 27.752 98.9489 26.664C99.9569 25.576 101.173 24.72 102.597 24.096C104.037 23.456 105.661 23.136 107.469 23.136C108.973 23.136 110.365 23.384 111.645 23.88C112.925 24.36 114.029 25.072 114.957 26.016C115.885 26.96 116.605 28.12 117.117 29.496C117.645 30.856 117.909 32.408 117.909 34.152C117.909 34.952 117.821 35.488 117.645 35.76C117.469 36.032 117.149 36.168 116.685 36.168H100.965ZM135.801 37.296C133.961 37.36 132.409 37.512 131.145 37.752C129.881 37.976 128.857 38.272 128.073 38.64C127.289 38.992 126.721 39.416 126.369 39.912C126.033 40.408 125.865 40.952 125.865 41.544C125.865 42.12 125.953 42.616 126.129 43.032C126.321 43.432 126.577 43.768 126.897 44.04C127.233 44.296 127.617 44.488 128.049 44.616C128.497 44.728 128.985 44.784 129.513 44.784C130.857 44.784 132.009 44.536 132.969 44.04C133.945 43.528 134.889 42.792 135.801 41.832V37.296ZM122.121 26.928C124.889 24.352 128.185 23.064 132.009 23.064C133.417 23.064 134.665 23.296 135.753 23.76C136.857 24.208 137.777 24.848 138.513 25.68C139.265 26.512 139.833 27.504 140.217 28.656C140.617 29.792 140.817 31.056 140.817 32.448V48H138.513C138.017 48 137.641 47.928 137.385 47.784C137.129 47.624 136.913 47.312 136.737 46.848L136.233 44.856C135.609 45.416 134.993 45.92 134.385 46.368C133.777 46.8 133.145 47.168 132.489 47.472C131.849 47.776 131.153 48 130.401 48.144C129.665 48.304 128.849 48.384 127.953 48.384C126.961 48.384 126.033 48.248 125.169 47.976C124.321 47.704 123.585 47.296 122.961 46.752C122.337 46.192 121.841 45.504 121.473 44.688C121.121 43.872 120.945 42.912 120.945 41.808C120.945 40.864 121.193 39.944 121.689 39.048C122.201 38.152 123.033 37.352 124.185 36.648C125.353 35.928 126.881 35.336 128.769 34.872C130.673 34.408 133.017 34.144 135.801 34.08V32.448C135.801 30.688 135.425 29.376 134.673 28.512C133.921 27.648 132.817 27.216 131.361 27.216C130.369 27.216 129.537 27.344 128.865 27.6C128.193 27.84 127.609 28.104 127.113 28.392C126.617 28.68 126.177 28.952 125.793 29.208C125.409 29.448 125.001 29.568 124.569 29.568C124.217 29.568 123.913 29.48 123.657 29.304C123.417 29.112 123.217 28.88 123.057 28.608L122.121 26.928ZM151.686 26.76C152.214 26.216 152.758 25.728 153.318 25.296C153.894 24.848 154.502 24.464 155.142 24.144C155.782 23.824 156.462 23.576 157.182 23.4C157.902 23.224 158.686 23.136 159.534 23.136C160.878 23.136 162.054 23.36 163.062 23.808C164.086 24.256 164.942 24.888 165.63 25.704C166.334 26.52 166.862 27.504 167.214 28.656C167.566 29.792 167.742 31.048 167.742 32.424V48H162.606V32.424C162.606 30.776 162.222 29.496 161.454 28.584C160.702 27.672 159.55 27.216 157.998 27.216C156.846 27.216 155.774 27.48 154.782 28.008C153.806 28.536 152.886 29.256 152.022 30.168V48H146.862V23.52H149.982C150.686 23.52 151.134 23.848 151.326 24.504L151.686 26.76ZM202.508 30.984V44.664C199.068 47.144 195.068 48.384 190.508 48.384C187.708 48.384 185.172 47.952 182.9 47.088C180.644 46.208 178.716 44.992 177.116 43.44C175.516 41.872 174.284 40.008 173.42 37.848C172.556 35.688 172.124 33.312 172.124 30.72C172.124 28.112 172.54 25.728 173.372 23.568C174.204 21.392 175.396 19.528 176.948 17.976C178.5 16.408 180.372 15.2 182.564 14.352C184.756 13.488 187.22 13.056 189.956 13.056C191.348 13.056 192.636 13.168 193.82 13.392C195.02 13.6 196.132 13.896 197.156 14.28C198.18 14.664 199.124 15.128 199.988 15.672C200.852 16.216 201.644 16.824 202.364 17.496L200.756 20.064C200.5 20.464 200.172 20.712 199.772 20.808C199.372 20.904 198.94 20.808 198.476 20.52C198.012 20.248 197.516 19.96 196.988 19.656C196.476 19.352 195.884 19.072 195.212 18.816C194.54 18.544 193.764 18.328 192.884 18.168C192.004 17.992 190.964 17.904 189.764 17.904C187.94 17.904 186.292 18.208 184.82 18.816C183.364 19.408 182.116 20.264 181.076 21.384C180.036 22.488 179.236 23.832 178.676 25.416C178.116 27 177.836 28.768 177.836 30.72C177.836 32.784 178.132 34.632 178.724 36.264C179.316 37.88 180.156 39.256 181.244 40.392C182.332 41.512 183.644 42.368 185.18 42.96C186.732 43.552 188.46 43.848 190.364 43.848C191.788 43.848 193.052 43.696 194.156 43.392C195.276 43.088 196.372 42.664 197.444 42.12V35.256H192.62C192.252 35.256 191.964 35.16 191.756 34.968C191.548 34.76 191.444 34.496 191.444 34.176V30.984H202.508ZM218.477 23.136C220.285 23.136 221.917 23.432 223.373 24.024C224.845 24.616 226.093 25.456 227.117 26.544C228.157 27.632 228.957 28.952 229.517 30.504C230.077 32.056 230.357 33.8 230.357 35.736C230.357 37.672 230.077 39.416 229.517 40.968C228.957 42.52 228.157 43.848 227.117 44.952C226.093 46.04 224.845 46.88 223.373 47.472C221.917 48.064 220.285 48.36 218.477 48.36C216.653 48.36 215.005 48.064 213.533 47.472C212.077 46.88 210.829 46.04 209.789 44.952C208.749 43.848 207.949 42.52 207.389 40.968C206.829 39.416 206.549 37.672 206.549 35.736C206.549 33.8 206.829 32.056 207.389 30.504C207.949 28.952 208.749 27.632 209.789 26.544C210.829 25.456 212.077 24.616 213.533 24.024C215.005 23.432 216.653 23.136 218.477 23.136ZM218.477 44.328C220.685 44.328 222.325 43.592 223.397 42.12C224.485 40.632 225.029 38.512 225.029 35.76C225.029 33.008 224.485 30.888 223.397 29.4C222.325 27.896 220.685 27.144 218.477 27.144C216.237 27.144 214.573 27.896 213.485 29.4C212.397 30.888 211.853 33.008 211.853 35.76C211.853 38.512 212.397 40.632 213.485 42.12C214.573 43.592 216.237 44.328 218.477 44.328Z" fill="white"/>
<ellipse cx="23.5522" cy="27.5349" rx="23.5522" ry="23.5862" fill="white"/>
<path d="M25.164 43.1947C24.6213 43.1192 24.3723 43.0413 24.3723 42.9469C24.3723 42.9067 24.5301 42.4007 24.723 41.8224C25.177 40.4617 25.4 39.3465 25.4559 38.1584C25.5045 37.1236 25.4445 37.0442 25.2131 37.8371C24.6522 39.7588 23.3495 42.5549 23.015 42.5549C22.7798 42.5549 21.6001 42.0891 20.6114 41.606C19.6776 41.1496 18.1966 40.2297 18.1966 40.1061C18.1966 40.0714 18.2899 40.0005 18.4039 39.9485C18.6574 39.8328 19.355 39.2993 19.933 38.7792C20.6187 38.162 21.9222 36.5289 21.7291 36.5289C21.7101 36.5289 21.3159 36.7943 20.8531 37.1188C19.3889 38.1453 17.6205 38.9075 16.7031 38.9075C16.3779 38.9075 16.2941 38.8566 15.4585 38.1505C14.9657 37.7341 14.0886 36.9237 13.5094 36.3496L12.4564 35.3058L12.8918 35.2369C13.8582 35.0842 15.2594 34.6925 15.8075 34.422C16.1264 34.2645 16.3754 34.1236 16.3607 34.1088C16.3459 34.0941 15.8356 34.1155 15.2265 34.1564C14.0861 34.2329 12.0615 34.1427 11.6828 33.9985C11.2022 33.8155 10.0767 31.9519 9.88328 31.0189C9.83206 30.7717 9.80237 30.5573 9.81732 30.5423C9.83225 30.5274 10.0581 30.564 10.3191 30.6238C11.7491 30.9513 14.9666 31.1813 17.0089 31.1021C19.9752 30.9871 22.1504 30.5957 23.6312 29.9106L24.2124 29.6417L24.1646 29.2927C24.1076 28.8757 24.2368 28.585 24.7058 28.0754C25.2789 27.4528 25.4008 27.5021 27.8153 29.3325C28.9522 30.1944 29.0002 30.3319 28.4725 31.2164C28.3022 31.5018 28.1213 31.6936 27.9489 31.7715L27.6855 31.8904L27.7345 32.3661C27.7614 32.6278 27.8365 33.3593 27.9015 33.9916C27.9664 34.6239 28.0414 35.9992 28.0681 37.0478C28.1557 40.4865 27.8102 42.5072 27.0391 43.0664C26.7893 43.2475 25.9549 43.3046 25.164 43.1947V43.1947ZM28.0379 27.5071C27.5066 27.1269 27.0835 26.7798 27.0979 26.7356C27.1122 26.6915 29.4969 23.3756 32.3971 19.3669C35.6589 14.8584 37.7629 12.0196 37.913 11.9244C38.4872 11.5603 39.261 11.9985 39.2537 12.6837C39.2516 12.8684 39.2072 13.115 39.1547 13.2317C39.0411 13.4844 29.1009 28.1978 29.0436 28.1981C29.0218 28.1981 28.5693 27.8872 28.0379 27.5071V27.5071ZM15.041 26.8746C14.7826 25.9047 13.8574 25.06 12.8793 24.9008L12.5355 24.8449L12.9887 24.7093C13.598 24.5269 14.0874 24.2286 14.4246 23.834C14.7434 23.4611 15.0247 22.9031 15.0866 22.5209C15.129 22.2593 15.267 22.2276 15.2671 22.4794C15.2673 22.8046 15.7327 23.5801 16.1653 23.9761C16.5755 24.3515 17.2838 24.7147 17.6057 24.7147C17.8257 24.7147 17.7207 24.8558 17.4642 24.9048C17.0716 24.9799 16.4382 25.2988 16.1118 25.5857C15.7091 25.9398 15.5042 26.2466 15.3082 26.7886L15.1412 27.2505L15.041 26.8746ZM23.7406 23.5024C23.735 23.048 23.1801 22.4359 22.5874 22.2304L22.2817 22.1244L22.7218 21.9226C23.1984 21.7042 23.5162 21.3568 23.6843 20.8705L23.7885 20.5691L24.0098 21.0222C24.2462 21.506 24.6788 21.8899 25.0894 21.9802C25.332 22.0336 25.413 22.1774 25.2005 22.1774C25.0047 22.1774 24.5089 22.4612 24.278 22.7054C24.1608 22.8293 23.9923 23.0912 23.9036 23.2875C23.8149 23.4837 23.7416 23.5804 23.7406 23.5024V23.5024ZM19.0086 19.3758C18.827 18.6958 18.1492 18.0163 17.4447 17.808C17.2486 17.75 17.0881 17.6825 17.0881 17.6579C17.0881 17.6333 17.2395 17.5681 17.4246 17.5129C18.1767 17.2886 18.8198 16.5888 19.035 15.7606C19.1291 15.3984 19.1292 15.3983 19.1888 15.636C19.4164 16.5433 20.1653 17.2987 21.0662 17.5298L21.4824 17.6365L21.2052 17.6958C20.361 17.8766 19.5829 18.5093 19.2767 19.2636L19.0969 19.7066L19.0086 19.3758Z" fill="#546652"/>
</svg>
