<svg width="100" height="100" viewBox="0 0 100 100" fill="none" xmlns="http://www.w3.org/2000/svg">
<circle cx="50" cy="50" r="50" fill="#546652"/>
<path d="M53.4217 83.1971C52.2695 83.0371 51.7408 82.8719 51.7408 82.6718C51.7408 82.5867 52.0759 81.5139 52.4855 80.2879C53.4491 77.4035 53.9226 75.0394 54.0412 72.5208C54.1445 70.3272 54.0171 70.1587 53.5258 71.8397C52.3351 75.9135 49.5695 81.8408 48.8593 81.8408C48.3602 81.8408 45.8556 80.8534 43.7568 79.8292C41.7743 78.8618 38.6302 76.9117 38.6302 76.6496C38.6302 76.5761 38.8282 76.4258 39.0702 76.3155C39.6086 76.0703 41.0895 74.9394 42.3165 73.8367C43.7723 72.5284 46.5395 69.0663 46.1294 69.0663C46.0892 69.0663 45.2523 69.6291 44.2698 70.317C41.1615 72.493 37.4072 74.1089 35.4596 74.1089C34.7693 74.1089 34.5914 74.0008 32.8174 72.504C31.7712 71.6212 29.9092 69.9033 28.6797 68.6863L26.444 66.4735L27.3685 66.3276C29.4201 66.0038 32.3947 65.1735 33.5582 64.5999C34.2354 64.2661 34.7639 63.9674 34.7327 63.9362C34.7014 63.9049 33.6179 63.9503 32.3249 64.0369C29.904 64.1991 25.6057 64.008 24.8019 63.7023C23.7816 63.3144 21.3922 59.3638 20.9816 57.3858C20.8728 56.8619 20.8098 56.4073 20.8415 56.3756C20.8732 56.3439 21.3526 56.4216 21.9067 56.5483C24.9426 57.2425 31.7731 57.7301 36.1089 57.5623C42.4061 57.3185 47.024 56.4888 50.1677 55.0363L51.4014 54.4663L51.3 53.7266C51.1789 52.8425 51.4532 52.2262 52.4488 51.1461C53.6655 49.8261 53.9244 49.9306 59.0501 53.8108C61.4637 55.6379 61.5656 55.9296 60.4453 57.8046C60.0838 58.4096 59.6997 58.8162 59.3338 58.9812L58.7746 59.2334L58.8785 60.2419C58.9357 60.7966 59.0952 62.3471 59.2331 63.6876C59.3709 65.0281 59.5301 67.9436 59.5868 70.1665C59.7727 77.4561 59.0393 81.7396 57.4023 82.9251C56.8721 83.3091 55.1008 83.4301 53.4217 83.1971ZM59.5228 49.9412C58.3947 49.1353 57.4967 48.3994 57.5272 48.3059C57.5576 48.2123 62.6201 41.1829 68.7771 32.6849C75.7017 23.1275 80.1682 17.1096 80.487 16.9078C81.7061 16.1359 83.3487 17.0649 83.3332 18.5175C83.3288 18.9089 83.2345 19.4316 83.1231 19.679C82.8818 20.2149 61.7795 51.4054 61.6578 51.406C61.6116 51.4062 60.6508 50.7471 59.5228 49.9412ZM31.9312 48.6004C31.3825 46.5444 29.4184 44.7536 27.3419 44.4163L26.6121 44.2977L27.5742 44.0102C28.8677 43.6236 29.9066 42.9912 30.6225 42.1548C31.2993 41.3642 31.8965 40.1813 32.028 39.3711C32.118 38.8165 32.4109 38.7493 32.4112 39.2832C32.4115 39.9724 33.3996 41.6165 34.318 42.4559C35.1887 43.2517 36.6925 44.0217 37.3759 44.0217C37.8429 44.0217 37.6199 44.3208 37.0754 44.4247C36.2419 44.5838 34.8972 45.2599 34.2044 45.8681C33.3495 46.6188 32.9144 47.2691 32.4983 48.4181L32.1438 49.3973L31.9312 48.6004ZM50.3998 41.4517C50.388 40.4885 49.21 39.191 47.9517 38.7554L47.3026 38.5306L48.237 38.1029C49.2487 37.6397 49.9234 36.9033 50.2802 35.8725L50.5014 35.2336L50.9714 36.1941C51.4732 37.2197 52.3915 38.0334 53.2633 38.2249C53.7782 38.338 53.9502 38.643 53.499 38.643C53.0834 38.643 52.0309 39.2444 51.5406 39.7621C51.2918 40.0248 50.9342 40.5801 50.7459 40.9962C50.5576 41.4122 50.4019 41.6172 50.3998 41.4517ZM40.354 32.7038C39.9685 31.2624 38.5296 29.8219 37.0341 29.3803C36.6177 29.2574 36.277 29.1142 36.277 29.0621C36.277 29.01 36.5985 28.8717 36.9914 28.7547C38.5879 28.2792 39.9533 26.7956 40.4101 25.04C40.6099 24.2722 40.6102 24.2721 40.7367 24.776C41.2199 26.6994 42.8097 28.3007 44.7222 28.7905L45.6057 29.0167L45.0174 29.1425C43.2252 29.5258 41.5733 30.8669 40.9233 32.4661L40.5416 33.4052L40.354 32.7038Z" fill="white"/>
</svg>
